<?xml version="1.0" standalone="no"?>
<!DOCTYPE svg PUBLIC "-//W3C//DTD SVG 20010904//EN"
 "http://www.w3.org/TR/2001/REC-SVG-20010904/DTD/svg10.dtd">
<svg version="1.0" xmlns="http://www.w3.org/2000/svg"
 width="700.000000pt" height="700.000000pt" viewBox="0 0 700.000000 700.000000"
 preserveAspectRatio="xMidYMid meet">
<metadata>
Created by potrace 1.14, written by Peter Selinger 2001-2017
</metadata>
<g transform="translate(0.000000,700.000000) scale(0.100000,-0.100000)"
fill="#000000" stroke="none">
<path d="M2445 5240 c-98 -7 -155 -32 -224 -100 -87 -85 -91 -101 -96 -398
-11 -619 -4 -2646 9 -2716 2 -12 7 -37 11 -57 11 -57 83 -132 168 -173 40 -20
89 -38 110 -42 l38 -6 -3 56 -3 57 -59 24 c-72 29 -111 65 -142 130 -30 63
-30 116 0 181 26 56 93 119 134 127 45 9 301 11 1324 11 537 0 980 -3 984 -6
4 -4 -4 -33 -17 -65 -33 -81 -34 -230 -1 -318 12 -32 22 -62 22 -65 0 -3 -411
-5 -912 -5 -502 0 -920 -1 -929 -3 -12 -3 -15 -17 -15 -64 l0 -60 1004 4 c987
3 1004 3 1018 23 20 27 10 67 -32 130 -41 61 -74 151 -74 199 0 45 33 132 77
207 l35 58 4 163 c5 194 5 2395 0 2554 -2 61 -7 120 -10 131 -7 21 -33 33 -73
33 l-23 0 -1 -877 c0 -483 -1 -1112 -2 -1398 l-2 -520 -210 -2 c-116 -1 -659
-4 -1208 -7 l-998 -5 -54 -31 c-29 -17 -56 -27 -58 -22 -11 16 -6 2496 4 2551
13 70 42 112 105 154 l52 34 958 -2 c528 0 964 1 969 2 8 3 12 58 6 111 -1 12
-153 13 -903 10 -497 -1 -939 -5 -983 -8z"/>
<path d="M4484 5190 c1 -41 5 -60 13 -61 7 0 33 -1 58 -1 25 0 50 1 55 1 6 1
10 28 10 61 l0 60 -68 0 -68 0 0 -60z"/>
<path d="M2599 5023 c0 -5 -1 -497 -2 -1094 l-2 -1086 57 1 56 1 1 1092 0
1093 -55 0 c-30 0 -54 -3 -55 -7z"/>
<path d="M3888 4896 c-55 -15 -109 -53 -136 -98 -27 -45 -33 -111 -33 -369 0
-128 -4 -230 -10 -241 -6 -10 -56 -78 -113 -151 -144 -186 -191 -254 -228
-333 -28 -61 -33 -81 -35 -164 -3 -138 21 -217 94 -308 146 -180 399 -207 568
-59 66 57 99 128 102 218 1 42 -1 93 -4 114 -13 80 -111 183 -196 206 -171 46
-326 -52 -343 -218 -8 -70 17 -139 64 -180 68 -59 185 -63 252 -7 30 26 60 81
60 111 0 25 -105 12 -131 -15 -22 -24 -44 -27 -83 -12 -63 24 -66 128 -4 181
64 57 187 42 236 -28 109 -157 -13 -356 -213 -348 -131 5 -257 112 -280 238
-13 70 -8 163 14 218 20 54 228 336 239 325 6 -7 10 -42 11 -118 l1 -58 55 0
55 0 0 176 0 176 113 146 c129 168 198 266 214 303 16 37 10 128 -11 171 -46
95 -159 149 -258 124z m133 -152 c60 -62 45 -100 -114 -303 -51 -64 -68 -80
-73 -67 -3 9 -4 89 -2 179 4 181 14 210 71 225 48 13 82 3 118 -34z"/>
<path d="M3694 2991 c-2 -2 -4 -47 -4 -99 0 -113 -15 -147 -73 -164 -33 -10
-41 -9 -65 8 -15 11 -35 37 -45 57 -18 36 -20 37 -74 37 l-55 0 7 -37 c26
-143 150 -219 279 -172 55 20 125 88 127 122 1 12 3 36 4 52 7 81 7 186 1 192
-7 8 -95 11 -102 4z"/>
<path d="M2602 2722 c-4 -13 -6 -103 -3 -133 1 -3 26 -6 55 -5 l55 0 -2 75 -2
75 -48 1 c-36 2 -50 -2 -55 -13z"/>
<path d="M2859 2155 c-1 -3 -1 -14 -1 -25 0 -11 0 -34 1 -50 l1 -30 662 2 662
3 0 50 1 50 -663 3 c-364 1 -662 0 -663 -3z"/>
<path d="M4348 2138 c-2 -13 -1 -38 1 -55 l3 -33 73 0 72 0 2 55 1 55 -74 0
c-70 0 -75 -1 -78 -22z"/>
<path d="M2599 1858 c-1 -23 -1 -74 0 -93 1 -11 14 -15 56 -15 l55 0 0 60 c0
41 -4 60 -12 61 -79 6 -98 3 -99 -13z"/>
</g>
</svg>
